<?xml version="1.0" encoding="UTF-8" standalone="no"?>
<!-- Created with Inkscape (http://www.inkscape.org/) -->

<svg
   width="94.821136mm"
   height="31.801001mm"
   viewBox="0 0 94.821136 31.801001"
   version="1.1"
   id="svg1"
   xmlns="http://www.w3.org/2000/svg"
   xmlns:svg="http://www.w3.org/2000/svg">
  <defs
     id="defs1">
    <rect
       x="80.746902"
       y="403.0463"
       width="557.23413"
       height="228.58714"
       id="rect13" />
    <rect
       x="94.784409"
       y="425.4989"
       width="433.16891"
       height="99.803894"
       id="rect12" />
    <rect
       x="4.4435024"
       y="13.22052"
       width="783.85291"
       height="1095.9174"
       id="rect4" />
    <rect
       x="45.527573"
       y="199.50301"
       width="718.34424"
       height="399.73193"
       id="rect3" />
    <rect
       x="54.597889"
       y="239.72917"
       width="707.2135"
       height="318.76633"
       id="rect1" />
  </defs>
  <path
     d="M 10.06475,15.624549 H 5.7784999 v 14.859 h -2.794 v -14.859 H -5.2452087e-8 v -1.30175 L 2.9844999,13.370299 v -0.98425 q 0,-3.3019999 1.4605,-4.7307499 1.4605,-1.4605 4.064,-1.4605 1.016,0 1.8415001,0.1905 0.85725,0.15875 1.4605,0.381 l -0.73025,2.19075 q -0.508,-0.15875 -1.1747501,-0.3175 -0.66675,-0.15875 -1.36525,-0.15875 -1.397,0 -2.0955,0.9525 -0.66675,0.9207499 -0.66675,2.9209999 v 1.11125 H 10.06475 Z"
     id="text23"
     style="font-size:31.75px;line-height:1.25;-inkscape-font-specification:sans-serif;white-space:pre;display:inline;stroke-width:0.264583"
     aria-label="f" fill="#ffffff" />
  <path
     d="m 27.368497,13.465549 v 17.018 h -2.286 l -0.41275,-2.25425 h -0.127 q -0.8255,1.3335 -2.286,1.9685 -1.4605,0.60325 -3.1115,0.60325 -3.07975,0 -4.6355,-1.4605 -1.55575,-1.49225 -1.55575,-4.73075 v -11.14425 h 2.82575 v 10.95375 q 0,4.064 3.77825,4.064 2.82575,0 3.90525,-1.5875 1.11125,-1.5875 1.11125,-4.572 v -8.85825 z"
     id="text22"
     style="-inkscape-font-specification:sans-serif;display:inline;stroke-width:0.264583"
     aria-label="u" fill="#ffffff" />
  <path
     d="m 32.353249,15.180049 q 0,-1.2065 0.5715,-1.68275 0.5715,-0.47625 1.36525,-0.47625 0.8255,0 1.397,0.47625 0.60325,0.47625 0.60325,1.68275 0,1.143 -0.60325,1.651 -0.5715,0.508 -1.397,0.508 -0.79375,0 -1.36525,-0.508 -0.5715,-0.508 -0.5715,-1.651 z m 0,13.589 q 0,-1.17475 0.5715,-1.651 0.5715,-0.47625 1.36525,-0.47625 0.8255,0 1.397,0.47625 0.60325,0.47625 0.60325,1.651 0,1.143 -0.60325,1.651 -0.5715,0.508 -1.397,0.508 -0.79375,0 -1.36525,-0.508 -0.5715,-0.508 -0.5715,-1.651 z"
     id="text21"
     style="font-size:31.75px;line-height:1.25;-inkscape-font-specification:sans-serif;white-space:pre;display:inline;stroke-width:0.264583"
     aria-label=":" fill="#ffffff" />
  <rect
     style="display:inline;fill:#ccff00;fill-opacity:1;stroke:none;stroke-width:0.166746"
     id="rect5"
     width="14.16"
     height="21.653"
     x="39.195614"
     y="10.147994" />
  <path
     d="m 52.355737,25.784549 q 0,2.4765 -1.8415,3.7465 -1.8415,1.27 -4.953,1.27 -1.778,0 -3.07975,-0.28575 -1.27,-0.28575 -2.25425,-0.79375 v -2.54 q 1.016,0.508 2.44475,0.9525 1.4605,0.41275 2.95275,0.41275 2.12725,0 3.07975,-0.66675 0.9525,-0.6985 0.9525,-1.8415 0,-0.635 -0.34925,-1.143 -0.34925,-0.508 -1.27,-1.016 -0.889,-0.508 -2.57175,-1.143 -1.651,-0.635 -2.82575,-1.27 -1.17475,-0.635 -1.80975,-1.524 -0.635,-0.889 -0.635,-2.286 0,-2.159 1.74625,-3.33375 1.778,-1.17475 4.6355,-1.17475 1.55575,0 2.88925,0.3175 1.36525,0.28575 2.54,0.8255 l -0.9525,2.2225 q -1.0795,-0.4445 -2.25425,-0.762 -1.17475,-0.3175 -2.413,-0.3175 -1.7145,0 -2.63525,0.5715 -0.889,0.53975 -0.889,1.49225 0,0.6985 0.41275,1.2065 0.41275,0.47625 1.36525,0.9525 0.98425,0.4445 2.6035,1.0795 1.61925,0.60325 2.76225,1.23825 1.143,0.635 1.74625,1.55575 0.60325,0.889 0.60325,2.25425 z"
     id="text20"
     style="font-size:31.75px;line-height:1.25;-inkscape-font-specification:sans-serif;white-space:pre;display:inline;fill:#004659;stroke-width:0.264583;fill-opacity:1"
     aria-label="s" />
  <rect
     style="display:inline;fill:#ccff00;fill-opacity:1;stroke:none;stroke-width:0.173992"
     id="rect5-9"
     width="12.255"
     height="27.240999"
     x="53.747784"
     y="4.5599961" />
  <path
     d="m 62.621651,28.515049 q 0.635,0 1.30175,-0.09525 0.66675,-0.127 1.0795,-0.254 v 2.12725 q -0.4445,0.22225 -1.27,0.34925 -0.8255,0.15875 -1.5875,0.15875 -1.3335,0 -2.4765,-0.4445 -1.11125,-0.47625 -1.80975,-1.61925 -0.6985,-1.143 -0.6985,-3.20675 v -9.906 h -2.413 v -1.3335 l 2.44475,-1.11125 1.11125,-3.6194999 h 1.651 v 3.9052499 h 4.92125 v 2.159 h -4.92125 v 9.8425 q 0,1.55575 0.73025,2.31775 0.762,0.73025 1.93675,0.73025 z"
     id="text19"
     style="font-size:31.75px;line-height:1.25;-inkscape-font-specification:sans-serif;white-space:pre;display:inline;fill:#004659;stroke-width:0.264583;fill-opacity:1"
     aria-label="t" />
  <rect
     style="display:inline;fill:#ccff00;fill-opacity:1;stroke:none;stroke-width:0.213315"
     id="rect5-2"
     width="15.779"
     height="31.801001"
     x="66.394958"
     y="-1.2207031e-06" />
  <path
     d="m 75.078196,13.179799 q 3.1115,0 4.60375,1.36525 1.49225,1.36525 1.49225,4.34975 v 11.58875 h -2.032 l -0.53975,-2.413 h -0.127 q -1.11125,1.397 -2.3495,2.06375 -1.2065,0.66675 -3.3655,0.66675 -2.31775,0 -3.84175,-1.2065 -1.524,-1.23825 -1.524,-3.84175 0,-2.54 2.00025,-3.90525 2.00025,-1.397 6.1595,-1.524 l 2.88925,-0.09525 v -1.016 q 0,-2.12725 -0.92075,-2.95275 -0.92075,-0.8255 -2.6035,-0.8255 -1.3335,0 -2.54,0.41275 -1.2065,0.381 -2.25425,0.889 l -0.85725,-2.0955 q 1.11125,-0.60325 2.63525,-1.016 1.524,-0.4445 3.175,-0.4445 z m 0.8255,9.0805 q -3.175,0.127 -4.41325,1.016 -1.2065,0.889 -1.2065,2.50825 0,1.42875 0.85725,2.0955 0.889,0.66675 2.25425,0.66675 2.159,0 3.58775,-1.17475 1.42875,-1.2065 1.42875,-3.683 v -1.524 z"
     id="text18"
     style="font-size:31.75px;line-height:1.25;-inkscape-font-specification:sans-serif;white-space:pre;display:inline;fill:#004659;stroke-width:0.264583;fill-opacity:1"
     aria-label="a" />
  <rect
     style="display:inline;fill:#ccff00;fill-opacity:1;stroke:none;stroke-width:0.167484"
     id="rect5-9-8"
     width="12.255"
     height="25.240999"
     x="82.566132"
     y="6.5599961" />
  <path
     d="m 91.440014,28.515049 q 0.635,0 1.30175,-0.09525 0.66675,-0.127 1.0795,-0.254 v 2.12725 q -0.4445,0.22225 -1.27,0.34925 -0.8255,0.15875 -1.5875,0.15875 -1.3335,0 -2.4765,-0.4445 -1.11125,-0.47625 -1.80975,-1.61925 -0.6985,-1.143 -0.6985,-3.20675 v -9.906 h -2.413 v -1.3335 l 2.44475,-1.11125 1.11125,-3.6194999 h 1.651 v 3.9052499 h 4.92125 v 2.159 h -4.92125 v 9.8425 q 0,1.55575 0.73025,2.31775 0.762,0.73025 1.93675,0.73025 z"
     id="text17"
     style="font-size:31.75px;line-height:1.25;-inkscape-font-specification:sans-serif;white-space:pre;display:inline;fill:#004659;stroke-width:0.264583;fill-opacity:1"
     aria-label="t" />
</svg>
